<svg viewBox="0 0 256 256" xmlns="http://www.w3.org/2000/svg">
  <defs>
    <linearGradient id="grad1" x1="0%" y1="0%" x2="100%" y2="100%">
      <stop offset="0%" style="stop-color:#6366f1;stop-opacity:1" />
      <stop offset="100%" style="stop-color:#8b5cf6;stop-opacity:1" />
    </linearGradient>
    <linearGradient id="grad2" x1="0%" y1="0%" x2="100%" y2="100%">
      <stop offset="0%" style="stop-color:#06b6d4;stop-opacity:1" />
      <stop offset="100%" style="stop-color:#3b82f6;stop-opacity:1" />
    </linearGradient>
  </defs>
  
  <circle cx="128" cy="128" r="120" fill="url(#grad1)" opacity="0.1"/>
  
  <path d="M 128 60 L 80 140 L 100 140 L 128 90 L 156 140 L 176 140 Z" 
        fill="url(#grad1)" 
        stroke="none"/>
  
  <circle cx="70" cy="90" r="4" fill="#6366f1" opacity="0.6"/>
  <circle cx="85" cy="105" r="4" fill="#6366f1" opacity="0.7"/>
  <circle cx="95" cy="120" r="4" fill="#6366f1" opacity="0.8"/>
  
  <circle cx="186" cy="90" r="4" fill="#8b5cf6" opacity="0.6"/>
  <circle cx="171" cy="105" r="4" fill="#8b5cf6" opacity="0.7"/>
  <circle cx="161" cy="120" r="4" fill="#8b5cf6" opacity="0.8"/>
  
  <line x1="65" y1="95" x2="95" y2="120" stroke="#06b6d4" stroke-width="1.5" opacity="0.5" stroke-dasharray="3,3"/>
  <line x1="191" y1="95" x2="161" y2="120" stroke="#06b6d4" stroke-width="1.5" opacity="0.5" stroke-dasharray="3,3"/>
  
  <circle cx="128" cy="170" r="25" fill="none" stroke="url(#grad2)" stroke-width="3" opacity="0.8"/>
  <circle cx="128" cy="170" r="18" fill="none" stroke="url(#grad2)" stroke-width="2" opacity="0.6"/>
  <circle cx="128" cy="170" r="8" fill="url(#grad2)" opacity="0.9"/>
  
  <path d="M 50 128 Q 80 128 90 140" fill="none" stroke="#6366f1" stroke-width="2" opacity="0.4"/>
  <path d="M 206 128 Q 176 128 166 140" fill="none" stroke="#8b5cf6" stroke-width="2" opacity="0.4"/>
  
  <circle cx="45" cy="128" r="3" fill="#06b6d4" opacity="0.7"/>
  <circle cx="211" cy="128" r="3" fill="#06b6d4" opacity="0.7"/>
  
  <circle cx="128" cy="45" r="5" fill="#3b82f6" opacity="0.8"/>
  <line x1="128" y1="45" x2="128" y2="60" stroke="#3b82f6" stroke-width="2" opacity="0.5"/>
</svg>
